<svg width="500" height="500" viewBox="0 0 500 500" fill="none" xmlns="http://www.w3.org/2000/svg">
<path d="M250 0C111.958 0 0 111.938 0 250C0 360.458 71.625 454.167 170.979 487.229C183.458 489.542 187.5 481.792 187.5 475.208V428.667C117.958 443.792 103.479 399.167 103.479 399.167C92.1042 370.271 75.7083 362.583 75.7083 362.583C53.0208 347.062 77.4375 347.396 77.4375 347.396C102.542 349.146 115.75 373.167 115.75 373.167C138.042 411.375 174.229 400.333 188.5 393.938C190.729 377.792 197.208 366.75 204.375 360.521C148.854 354.167 90.4792 332.729 90.4792 236.958C90.4792 209.646 100.25 187.354 116.229 169.854C113.646 163.542 105.083 138.104 118.667 103.688C118.667 103.688 139.667 96.9792 187.438 129.312C207.375 123.771 228.75 121 250 120.896C271.25 121 292.646 123.771 312.625 129.312C360.354 96.9792 381.313 103.688 381.313 103.688C394.917 138.125 386.354 163.563 383.771 169.854C399.813 187.354 409.5 209.667 409.5 236.958C409.5 332.979 351.021 354.125 295.354 360.313C304.313 368.063 312.5 383.271 312.5 406.604V475.208C312.5 481.854 316.5 489.667 329.188 487.208C428.458 454.104 500 360.417 500 250C500 111.938 388.063 0 250 0Z" fill="white"/>
</svg>
